<?xml version="1.0" encoding="utf-8"?>
<!-- Generator: Adobe Illustrator 16.0.0, SVG Export Plug-In . SVG Version: 6.00 Build 0)  -->
<!DOCTYPE svg PUBLIC "-//W3C//DTD SVG 1.1//EN" "http://www.w3.org/Graphics/SVG/1.1/DTD/svg11.dtd">
<svg version="1.1" id="Calque_1" xmlns="http://www.w3.org/2000/svg" xmlns:xlink="http://www.w3.org/1999/xlink" x="0px" y="0px"
	 width="100px" height="100px" viewBox="0 0 100 100" enable-background="new 0 0 100 100" xml:space="preserve">
<circle fill="#1DB4D8" cx="50" cy="50" r="50"/>
<g>
	<path fill="#FFFFFF" d="M74.109,51.173c0.024,0.479-0.202,1.128-0.681,1.948s-1.13,1.749-1.951,2.785
		c-0.822,1.038-1.779,2.148-2.871,3.333c-1.093,1.186-2.239,2.37-3.441,3.555c-1.375,1.367-2.829,2.683-4.362,3.948
		c-1.534,1.264-3.172,2.489-4.914,3.674c-3.436,2.37-6.503,3.555-9.202,3.555c-2.97,0-5.276-0.923-6.92-2.769
		c-1.645-1.868-2.761-4.124-3.35-6.768c-0.589-2.62-0.884-5.32-0.884-8.101c0-1.162,0.147-2.974,0.442-5.435
		c0.146-1.23,0.294-2.29,0.441-3.179s0.307-1.606,0.479-2.153c0.344-1.071,1.067-2.005,2.172-2.803
		c1.128-0.843,2.306-1.265,3.533-1.265c0.663,0,0.994,0.581,0.994,1.743c0,0.775-0.08,1.652-0.239,2.632
		c-0.16,0.98-0.325,1.948-0.497,2.905c-0.319,1.8-0.552,3.413-0.699,4.837s-0.221,2.66-0.221,3.708c0,2.302,0.343,4.626,1.03,6.973
		c0.687,2.393,1.927,3.589,3.718,3.589c1.815,0,3.926-0.615,6.331-1.846c1.202-0.638,2.405-1.344,3.607-2.119
		c1.202-0.774,2.404-1.641,3.607-2.598c1.227-0.957,2.404-1.919,3.533-2.889c1.129-0.968,2.233-1.965,3.313-2.99
		c1.079-1.025,2.048-1.982,2.907-2.871s1.607-1.709,2.246-2.461c0.023-0.045,0.066-0.12,0.128-0.222s0.129-0.205,0.203-0.308
		c0.073-0.103,0.147-0.188,0.221-0.256s0.147-0.091,0.221-0.068c0.344,0,0.602,0.251,0.773,0.752
		C73.999,50.489,74.109,50.877,74.109,51.173z M49.999,23.385c0,1.481-0.417,2.746-1.251,3.794c-0.81,1.048-2,1.572-3.57,1.572
		c-0.982,0-2.074-0.137-3.276-0.41c-1.178-0.273-1.767-0.718-1.767-1.333c0-1.116,0.374-2.182,1.122-3.196
		c0.749-1.014,1.65-1.84,2.706-2.478c0.834-0.456,1.386-0.684,1.656-0.684c1.398,0,2.479,0.177,3.239,0.53
		C49.619,21.534,49.999,22.269,49.999,23.385z"/>
</g>
</svg>
