<?xml version="1.0" encoding="utf-8"?>
<!-- Generator: Adobe Illustrator 16.0.0, SVG Export Plug-In . SVG Version: 6.00 Build 0)  -->
<!DOCTYPE svg PUBLIC "-//W3C//DTD SVG 1.1//EN" "http://www.w3.org/Graphics/SVG/1.1/DTD/svg11.dtd">
<svg version="1.1" id="Calque_1" xmlns="http://www.w3.org/2000/svg" xmlns:xlink="http://www.w3.org/1999/xlink" x="0px" y="0px"
	 width="100px" height="100px" viewBox="0 0 100 100" enable-background="new 0 0 100 100" xml:space="preserve">
<g id="Your_Icon">
	<g>
		<path fill="#2F92A8" d="M50.006,1.012c-3.914,0-7.701,0.508-11.35,1.375l1.725,1.129l6.795,0.959l3.137-0.697l5.873,0.717
			l1.178,1.57l-4.09-0.545l-4.182,1.742l1.201,3.123l4.32,1.963l0.576-3.953l4.096-0.262l5.836,5.574l1.654,2.18l0.785,1.393
			l-4.531,1.787l-6.844,3.102l-0.562,3.037l-4.528,4.27l0.176,4.096L49.9,33.559l-0.547-3.473l-2.596-0.848l-7.463,0.393
			l-3.008,5.506l2.615,3.137l4.32-2.357l0.295,3.838l1.656,1.307l2.959,3.398l-0.146,4.291l5.463,1.283l4.006-2.875l1.83,0.609
			l6.719,2.682l9.431,3.534l1.963,4.713l6.715,3.271l1.533,5.764l-4.582,5.125L75.66,78.52l-5.727,2.963l-5.894,3.926l-7.854,5.107
			l-4.351,4.426l-1.543-1.678l3.49-8.845l0.881-10.252L47.15,67.34l0.049-5.744l1.965-2.357l2.307-6.823l-4.662-2.604l-3.145-5.105
			l-4.914-1.889l-7.703-4.15l-3.143-8.643l-1.57,4.32l-2.357-7.068l0.785-10.605l3.928-3.535l-1.178-2.357l2.748-4.32L24.905,7.99
			C10.611,16.545,1.01,32.135,1.01,50.006C1.01,77.063,22.945,99,50.006,99C77.063,99,99,77.063,99,50.006
			C99,22.947,77.063,1.012,50.006,1.012z"/>
	</g>
</g>
</svg>
